<svg width="140" height="140" viewBox="0 0 140 140" fill="none" xmlns="http://www.w3.org/2000/svg">
<path d="M107.071 70.5056C107.071 70.5056 114.913 64.0754 110.946 58.2595C106.979 52.4417 99.5962 51.7398 97.7646 53.1379C97.7646 53.1379 92.6254 40.9695 81.8629 42.3851C71.0985 43.7987 67.6296 53.342 69.6907 60.3906C69.6907 60.3906 57.2463 70.179 66.9646 80.8734C66.9646 80.8734 77.1224 88.3809 83.681 81.4626C83.681 81.4626 91.3985 92.9289 100.687 87.749C109.978 82.569 107.071 70.5056 107.071 70.5056V70.5056Z" fill="#EA5A47"/>
<path d="M69.7433 50.05C65.7766 48.5839 62.057 47.5145 58.66 48.5839C55.0901 49.7059 52.6673 52.7178 51.7826 55.8056C50.8493 59.0684 51.5843 62.9067 54.392 65.8311C56.7662 68.3045 60.7581 69.1562 64.7753 70.3073L68.355 60.0387L69.7433 50.05V50.05Z" fill="#D22F27"/>
<path d="M85.6644 76.8426C83.4205 74.6007 84.4802 69.9048 88.0308 66.3543C91.5813 62.8037 96.2752 61.744 98.519 63.986" fill="#EA5A47"/>
<path d="M71.0557 68.1703C70.803 66.537 71.4952 64.6956 72.3352 63.1634C73.4501 61.1184 74.9928 59.3377 76.858 57.9426C80.0843 55.5393 83.9759 54.1943 87.9977 54.0926C91.68 53.9927 95.305 55.0206 98.3868 57.0384C98.3868 57.0384 98.4393 57.0734 98.5288 57.1434C99.1549 57.6295 101.64 59.8151 101.309 63.7487C101.169 65.4131 100.345 67.1378 99.2852 68.532C97.8823 70.3922 96.095 71.9282 94.0449 73.0353C90.5213 74.9287 86.4928 75.6699 82.526 75.1548C78.8903 74.6859 75.488 73.1057 72.7843 70.6301" fill="#D22F27"/>
<path d="M97.5276 63.801C95.311 61.5804 91.2237 62.7704 87.5001 66.1868C83.7765 69.6032 82.4951 74.2718 84.6418 76.6091L85.0754 77.0407C87.3465 79.2574 92.1085 78.186 95.7154 74.6452C99.3204 71.1063 99.7988 66.0196 97.5276 63.801" fill="#EA5A47"/>
<path d="M88.7385 66.6575C91.5249 67.7658 92.6643 71.4875 91.2799 74.9699C90.5643 76.7783 89.071 78.151 87.3774 78.9716C84.7485 80.2394 81.476 79.6988 79.4596 77.5872C79.1764 77.3027 78.9431 76.9728 78.7693 76.611" fill="#D22F27"/>
<path d="M90.0958 68.0166C88.9875 65.2283 85.2658 64.0889 81.7833 65.4733C79.9769 66.1908 78.6021 67.6822 77.7835 69.3777C76.5138 72.0047 77.0544 75.2772 79.168 77.2916C79.4752 77.5872 79.8019 77.8302 80.1421 77.9838" fill="#D22F27"/>
<path d="M20.1717 72.7843C23.17 66.5991 31.2025 64.2969 31.2025 64.2969C31.2025 64.2969 34.372 72.028 31.3756 78.2152C28.3772 84.4004 20.3448 86.7007 20.3448 86.7007C20.3448 86.7007 17.1792 78.9696 20.1736 72.7843H20.1717Z" fill="#B1CC33"/>
<path d="M84.7213 106.672C84.3635 108.583 81.8241 109.711 79.0513 109.192C76.2785 108.675 74.3204 106.703 74.6763 104.794L77.3674 99.6974C79.0941 96.7477 79.168 96.7263 81.0055 97.1035L81.581 97.2104C83.4321 97.5196 83.4924 97.5663 84.0446 100.94L84.7233 106.664" fill="#EA5A47"/>
<path d="M107.411 71.5439C111.683 69.6209 113.427 62.6364 110.884 58.4578C108.447 54.4562 101.529 50.2289 97.2551 52.152" stroke="black" stroke-width="2" stroke-miterlimit="10" stroke-linecap="round" stroke-linejoin="round"/>
<path d="M74.8223 60.692C76.3961 59.1141 78.2661 57.8628 80.325 57.0099C82.3838 56.157 84.591 55.7193 86.8195 55.7219C89.0483 55.719 91.2558 56.1566 93.315 57.0095C95.3742 57.8625 97.2446 59.1139 98.8186 60.692" stroke="black" stroke-width="2" stroke-miterlimit="10" stroke-linecap="round" stroke-linejoin="round"/>
<path d="M83.5625 82.6292C75.2538 89.2131 65.8952 82.9209 64.2424 78.9036C61.6174 72.5278 63.5055 63.7078 68.2363 60.9292" stroke="black" stroke-width="2" stroke-miterlimit="10" stroke-linecap="round" stroke-linejoin="round"/>
<path d="M95.7659 64.958C98.0079 67.2019 97.5548 71.293 94.7509 74.0969C91.9471 76.8988 87.8559 77.3538 85.6121 75.1119" stroke="black" stroke-width="2" stroke-miterlimit="10" stroke-linecap="round" stroke-linejoin="round"/>
<path d="M79.8565 74.9176C78.2601 73.3231 78.5829 70.4104 80.5779 68.4154C81.6143 67.3809 83.0551 66.8734 84.4726 66.8132C86.6679 66.7198 88.7698 68.0673 89.532 70.1284C89.6429 70.4279 89.7129 70.7273 89.7168 71.0073" stroke="black" stroke-width="2" stroke-miterlimit="10" stroke-linecap="round" stroke-linejoin="round"/>
<path d="M84.7215 106.672C84.3638 108.584 81.8243 109.711 79.0515 109.192C76.2787 108.675 74.3207 106.703 74.6765 104.794L77.3676 99.6976C79.0943 96.7479 79.1682 96.7265 81.0057 97.1037L81.5813 97.2107C83.4324 97.5199 83.4926 97.5665 84.0449 100.94L84.7235 106.665" stroke="black" stroke-width="2" stroke-miterlimit="10" stroke-linecap="round" stroke-linejoin="round"/>
<path d="M58.24 66.4573C56.0769 65.838 54.2484 64.3847 53.1568 62.4172C52.0653 60.4497 51.8 58.1292 52.4193 55.9661C53.0387 53.803 54.4919 51.9745 56.4594 50.8829C58.4269 49.7913 60.7475 49.526 62.9106 50.1454" stroke="black" stroke-width="2" stroke-miterlimit="10" stroke-linecap="round" stroke-linejoin="round"/>
<path d="M107.411 71.5439C108.139 73.1099 108.551 74.8038 108.624 76.529C108.697 78.2542 108.43 79.9769 107.837 81.5988C107.244 83.2206 106.338 84.7099 105.17 85.9815C104.002 87.2531 102.594 88.2821 101.028 89.0098C99.4625 89.7376 97.7686 90.1498 96.0434 90.2229C94.3182 90.2959 92.5955 90.0285 90.9736 89.4358C89.3517 88.8432 87.8625 87.9368 86.5909 86.7686C85.3193 85.6004 84.2902 84.1931 83.5625 82.6272" stroke="black" stroke-width="2" stroke-miterlimit="10" stroke-linecap="round" stroke-linejoin="round"/>
<path d="M97.2552 52.1519C96.6788 50.2465 95.7327 48.4733 94.4709 46.9335C93.2092 45.3937 91.6565 44.1176 89.9016 43.1779C88.1467 42.2381 86.2238 41.6533 84.2429 41.4567C82.2619 41.2601 80.2616 41.4556 78.3562 42.032C76.4508 42.6085 74.6776 43.5546 73.1378 44.8163C71.5981 46.0781 70.3219 47.6307 69.3822 49.3857C68.4425 51.1406 67.8576 53.0635 67.661 55.0444C67.4644 57.0254 67.6599 59.0257 68.2364 60.9311" stroke="black" stroke-width="2" stroke-miterlimit="10" stroke-linecap="round" stroke-linejoin="round"/>
<path d="M20.1717 72.7846C23.17 66.5993 31.2025 64.2971 31.2025 64.2971C31.2025 64.2971 34.372 72.0282 31.3756 78.2154C28.3772 84.4007 20.3448 86.7009 20.3448 86.7009C20.3448 86.7009 17.1792 78.9699 20.1736 72.7846H20.1717Z" stroke="black" stroke-width="2" stroke-linecap="round" stroke-linejoin="round"/>
<path d="M78.6333 33.3434C73.5 20.9417 59.2803 15.052 46.8805 20.1873C34.4808 25.3225 28.5872 39.5403 33.7244 51.9439C33.7244 51.9439 54.4464 95.097 52.5019 114.541" stroke="black" stroke-width="2" stroke-linecap="round" stroke-linejoin="round"/>
</svg>
